<mxfile host="app.diagrams.net" modified="2020-03-30T12:21:47.504Z" agent="5.0 (Windows NT 10.0; Win64; x64) AppleWebKit/537.36 (KHTML, like Gecko) Chrome/80.0.3987.149 Safari/537.36" etag="pqz8-EPrHjrJrCdYLHDx" version="12.9.4" type="github">
  <diagram id="pQbSXTKy-mhwdIOJWXm_" name="第 1 页">
    <mxGraphModel dx="981" dy="526" grid="1" gridSize="10" guides="1" tooltips="1" connect="1" arrows="1" fold="1" page="1" pageScale="1" pageWidth="827" pageHeight="1169" math="0" shadow="0">
      <root>
        <mxCell id="0" />
        <mxCell id="1" parent="0" />
        <mxCell id="wN9l5T7bKttlChdMxks--5" value="贷前流程" style="swimlane;html=1;childLayout=stackLayout;resizeParent=1;resizeParentMax=0;startSize=20;horizontal=0;horizontalStack=1;" parent="1" vertex="1">
          <mxGeometry x="110" y="90" width="630" height="350" as="geometry" />
        </mxCell>
        <mxCell id="wN9l5T7bKttlChdMxks--6" value="贷前业务系统" style="swimlane;html=1;startSize=20;" parent="wN9l5T7bKttlChdMxks--5" vertex="1">
          <mxGeometry x="20" width="130" height="350" as="geometry" />
        </mxCell>
        <mxCell id="NFReUXaRawRJMiUW7v5Y-27" value="授信完成" style="rounded=0;whiteSpace=wrap;html=1;" vertex="1" parent="wN9l5T7bKttlChdMxks--6">
          <mxGeometry x="30" y="293" width="70" height="30" as="geometry" />
        </mxCell>
        <mxCell id="NFReUXaRawRJMiUW7v5Y-58" style="edgeStyle=orthogonalEdgeStyle;rounded=0;orthogonalLoop=1;jettySize=auto;html=1;exitX=0.5;exitY=1;exitDx=0;exitDy=0;entryX=0.5;entryY=0;entryDx=0;entryDy=0;fontSize=8;" edge="1" parent="wN9l5T7bKttlChdMxks--6" source="wN9l5T7bKttlChdMxks--24" target="wN9l5T7bKttlChdMxks--34">
          <mxGeometry relative="1" as="geometry" />
        </mxCell>
        <mxCell id="wN9l5T7bKttlChdMxks--24" value="风险核查" style="rounded=0;whiteSpace=wrap;html=1;" parent="wN9l5T7bKttlChdMxks--6" vertex="1">
          <mxGeometry x="30" y="140" width="70" height="30" as="geometry" />
        </mxCell>
        <mxCell id="wN9l5T7bKttlChdMxks--27" style="edgeStyle=orthogonalEdgeStyle;rounded=0;orthogonalLoop=1;jettySize=auto;html=1;exitX=0.5;exitY=1;exitDx=0;exitDy=0;entryX=0.5;entryY=0;entryDx=0;entryDy=0;fontSize=8;" parent="wN9l5T7bKttlChdMxks--6" source="wN9l5T7bKttlChdMxks--14" target="wN9l5T7bKttlChdMxks--24" edge="1">
          <mxGeometry relative="1" as="geometry" />
        </mxCell>
        <mxCell id="wN9l5T7bKttlChdMxks--14" value="身份验证" style="rounded=0;whiteSpace=wrap;html=1;" parent="wN9l5T7bKttlChdMxks--6" vertex="1">
          <mxGeometry x="30" y="90" width="70" height="30" as="geometry" />
        </mxCell>
        <mxCell id="wN9l5T7bKttlChdMxks--21" style="edgeStyle=orthogonalEdgeStyle;rounded=0;orthogonalLoop=1;jettySize=auto;html=1;exitX=0.5;exitY=1;exitDx=0;exitDy=0;entryX=0.5;entryY=0;entryDx=0;entryDy=0;fontSize=8;" parent="wN9l5T7bKttlChdMxks--6" source="wN9l5T7bKttlChdMxks--11" target="wN9l5T7bKttlChdMxks--14" edge="1">
          <mxGeometry relative="1" as="geometry" />
        </mxCell>
        <mxCell id="wN9l5T7bKttlChdMxks--11" value="用户&lt;br&gt;发起授信" style="rounded=0;whiteSpace=wrap;html=1;" parent="wN9l5T7bKttlChdMxks--6" vertex="1">
          <mxGeometry x="30" y="40" width="70" height="30" as="geometry" />
        </mxCell>
        <mxCell id="wN9l5T7bKttlChdMxks--34" value="发起授信" style="rounded=0;whiteSpace=wrap;html=1;" parent="wN9l5T7bKttlChdMxks--6" vertex="1">
          <mxGeometry x="30" y="190" width="70" height="30" as="geometry" />
        </mxCell>
        <mxCell id="wN9l5T7bKttlChdMxks--7" value="风控" style="swimlane;html=1;startSize=20;" parent="wN9l5T7bKttlChdMxks--5" vertex="1">
          <mxGeometry x="150" width="120" height="350" as="geometry" />
        </mxCell>
        <mxCell id="wN9l5T7bKttlChdMxks--18" value="贷前&lt;br&gt;风险验证" style="rounded=0;whiteSpace=wrap;html=1;" parent="wN9l5T7bKttlChdMxks--7" vertex="1">
          <mxGeometry x="30" y="140" width="70" height="30" as="geometry" />
        </mxCell>
        <mxCell id="wN9l5T7bKttlChdMxks--8" value="合同系统" style="swimlane;html=1;startSize=20;" parent="wN9l5T7bKttlChdMxks--5" vertex="1">
          <mxGeometry x="270" width="120" height="350" as="geometry" />
        </mxCell>
        <mxCell id="NFReUXaRawRJMiUW7v5Y-26" value="创建完成" style="rounded=0;whiteSpace=wrap;html=1;" vertex="1" parent="wN9l5T7bKttlChdMxks--8">
          <mxGeometry x="34" y="300" width="66" height="30" as="geometry" />
        </mxCell>
        <mxCell id="NFReUXaRawRJMiUW7v5Y-60" style="edgeStyle=orthogonalEdgeStyle;rounded=0;orthogonalLoop=1;jettySize=auto;html=1;exitX=0.5;exitY=1;exitDx=0;exitDy=0;entryX=0.5;entryY=0;entryDx=0;entryDy=0;fontSize=8;" edge="1" parent="wN9l5T7bKttlChdMxks--8" source="wN9l5T7bKttlChdMxks--47" target="NFReUXaRawRJMiUW7v5Y-26">
          <mxGeometry relative="1" as="geometry" />
        </mxCell>
        <mxCell id="wN9l5T7bKttlChdMxks--47" value="向资方发起" style="rounded=0;whiteSpace=wrap;html=1;" parent="wN9l5T7bKttlChdMxks--8" vertex="1">
          <mxGeometry x="34" y="250" width="66" height="30" as="geometry" />
        </mxCell>
        <mxCell id="wN9l5T7bKttlChdMxks--49" style="edgeStyle=orthogonalEdgeStyle;rounded=0;orthogonalLoop=1;jettySize=auto;html=1;exitX=0.5;exitY=1;exitDx=0;exitDy=0;entryX=0.447;entryY=-0.062;entryDx=0;entryDy=0;entryPerimeter=0;fontSize=8;" parent="wN9l5T7bKttlChdMxks--8" source="wN9l5T7bKttlChdMxks--42" target="wN9l5T7bKttlChdMxks--47" edge="1">
          <mxGeometry relative="1" as="geometry" />
        </mxCell>
        <mxCell id="wN9l5T7bKttlChdMxks--42" value="创建合同" style="rounded=0;whiteSpace=wrap;html=1;" parent="wN9l5T7bKttlChdMxks--8" vertex="1">
          <mxGeometry x="34" y="190" width="70" height="30" as="geometry" />
        </mxCell>
        <mxCell id="wN9l5T7bKttlChdMxks--9" value="账务系统" style="swimlane;html=1;startSize=20;" parent="wN9l5T7bKttlChdMxks--5" vertex="1">
          <mxGeometry x="390" width="120" height="350" as="geometry" />
        </mxCell>
        <mxCell id="wN9l5T7bKttlChdMxks--45" value="创建账户" style="rounded=0;whiteSpace=wrap;html=1;" parent="wN9l5T7bKttlChdMxks--9" vertex="1">
          <mxGeometry x="25" y="190" width="70" height="30" as="geometry" />
        </mxCell>
        <mxCell id="wN9l5T7bKttlChdMxks--44" value="资金方" style="swimlane;html=1;startSize=20;" parent="wN9l5T7bKttlChdMxks--5" vertex="1">
          <mxGeometry x="510" width="120" height="350" as="geometry" />
        </mxCell>
        <mxCell id="wN9l5T7bKttlChdMxks--48" value="授信" style="rounded=0;whiteSpace=wrap;html=1;" parent="wN9l5T7bKttlChdMxks--44" vertex="1">
          <mxGeometry x="30" y="250" width="70" height="30" as="geometry" />
        </mxCell>
        <mxCell id="wN9l5T7bKttlChdMxks--19" style="edgeStyle=orthogonalEdgeStyle;rounded=0;orthogonalLoop=1;jettySize=auto;html=1;exitX=1;exitY=0.5;exitDx=0;exitDy=0;entryX=0;entryY=0.5;entryDx=0;entryDy=0;" parent="wN9l5T7bKttlChdMxks--5" source="wN9l5T7bKttlChdMxks--24" target="wN9l5T7bKttlChdMxks--18" edge="1">
          <mxGeometry relative="1" as="geometry" />
        </mxCell>
        <mxCell id="wN9l5T7bKttlChdMxks--20" value="风险评估" style="text;html=1;align=center;verticalAlign=middle;resizable=0;points=[];labelBackgroundColor=#ffffff;fontSize=8;" parent="wN9l5T7bKttlChdMxks--19" vertex="1" connectable="0">
          <mxGeometry x="-0.2632" relative="1" as="geometry">
            <mxPoint x="7.71" y="-15" as="offset" />
          </mxGeometry>
        </mxCell>
        <mxCell id="wN9l5T7bKttlChdMxks--43" style="edgeStyle=orthogonalEdgeStyle;rounded=0;orthogonalLoop=1;jettySize=auto;html=1;exitX=1;exitY=0.5;exitDx=0;exitDy=0;entryX=0;entryY=0.5;entryDx=0;entryDy=0;fontSize=8;" parent="wN9l5T7bKttlChdMxks--5" source="wN9l5T7bKttlChdMxks--34" target="wN9l5T7bKttlChdMxks--42" edge="1">
          <mxGeometry relative="1" as="geometry" />
        </mxCell>
        <mxCell id="wN9l5T7bKttlChdMxks--51" value="请求创建合同" style="text;html=1;align=center;verticalAlign=middle;resizable=0;points=[];labelBackgroundColor=#ffffff;fontSize=8;" parent="wN9l5T7bKttlChdMxks--43" vertex="1" connectable="0">
          <mxGeometry x="-0.1755" y="1" relative="1" as="geometry">
            <mxPoint as="offset" />
          </mxGeometry>
        </mxCell>
        <mxCell id="wN9l5T7bKttlChdMxks--46" style="edgeStyle=orthogonalEdgeStyle;rounded=0;orthogonalLoop=1;jettySize=auto;html=1;exitX=1;exitY=0.5;exitDx=0;exitDy=0;entryX=0;entryY=0.5;entryDx=0;entryDy=0;fontSize=8;" parent="wN9l5T7bKttlChdMxks--5" source="wN9l5T7bKttlChdMxks--42" target="wN9l5T7bKttlChdMxks--45" edge="1">
          <mxGeometry relative="1" as="geometry" />
        </mxCell>
        <mxCell id="wN9l5T7bKttlChdMxks--50" style="edgeStyle=orthogonalEdgeStyle;rounded=0;orthogonalLoop=1;jettySize=auto;html=1;exitX=1;exitY=0.5;exitDx=0;exitDy=0;entryX=0;entryY=0.5;entryDx=0;entryDy=0;fontSize=8;" parent="wN9l5T7bKttlChdMxks--5" source="wN9l5T7bKttlChdMxks--47" target="wN9l5T7bKttlChdMxks--48" edge="1">
          <mxGeometry relative="1" as="geometry" />
        </mxCell>
        <mxCell id="NFReUXaRawRJMiUW7v5Y-29" value="资金方评估用户&lt;br&gt;创建合同" style="text;html=1;align=center;verticalAlign=middle;resizable=0;points=[];labelBackgroundColor=#ffffff;fontSize=8;" vertex="1" connectable="0" parent="wN9l5T7bKttlChdMxks--50">
          <mxGeometry x="-0.1355" y="-2" relative="1" as="geometry">
            <mxPoint x="6.21" y="13" as="offset" />
          </mxGeometry>
        </mxCell>
        <mxCell id="NFReUXaRawRJMiUW7v5Y-28" style="edgeStyle=orthogonalEdgeStyle;rounded=0;orthogonalLoop=1;jettySize=auto;html=1;exitX=0;exitY=0.25;exitDx=0;exitDy=0;entryX=1;entryY=0.5;entryDx=0;entryDy=0;fontSize=8;" edge="1" parent="wN9l5T7bKttlChdMxks--5" source="NFReUXaRawRJMiUW7v5Y-26" target="NFReUXaRawRJMiUW7v5Y-27">
          <mxGeometry relative="1" as="geometry" />
        </mxCell>
        <mxCell id="NFReUXaRawRJMiUW7v5Y-30" value="贷中流程" style="swimlane;html=1;childLayout=stackLayout;resizeParent=1;resizeParentMax=0;startSize=20;horizontal=0;horizontalStack=1;" vertex="1" parent="1">
          <mxGeometry x="120" y="470" width="630" height="350" as="geometry" />
        </mxCell>
        <mxCell id="NFReUXaRawRJMiUW7v5Y-31" value="贷前业务系统" style="swimlane;html=1;startSize=20;" vertex="1" parent="NFReUXaRawRJMiUW7v5Y-30">
          <mxGeometry x="20" width="130" height="350" as="geometry" />
        </mxCell>
        <mxCell id="NFReUXaRawRJMiUW7v5Y-32" value="授信完成" style="rounded=0;whiteSpace=wrap;html=1;" vertex="1" parent="NFReUXaRawRJMiUW7v5Y-31">
          <mxGeometry x="30" y="293" width="70" height="30" as="geometry" />
        </mxCell>
        <mxCell id="NFReUXaRawRJMiUW7v5Y-59" style="edgeStyle=orthogonalEdgeStyle;rounded=0;orthogonalLoop=1;jettySize=auto;html=1;exitX=0.5;exitY=1;exitDx=0;exitDy=0;fontSize=8;" edge="1" parent="NFReUXaRawRJMiUW7v5Y-31" source="NFReUXaRawRJMiUW7v5Y-33" target="NFReUXaRawRJMiUW7v5Y-38">
          <mxGeometry relative="1" as="geometry" />
        </mxCell>
        <mxCell id="NFReUXaRawRJMiUW7v5Y-33" value="风险核查" style="rounded=0;whiteSpace=wrap;html=1;" vertex="1" parent="NFReUXaRawRJMiUW7v5Y-31">
          <mxGeometry x="30" y="140" width="70" height="30" as="geometry" />
        </mxCell>
        <mxCell id="NFReUXaRawRJMiUW7v5Y-34" style="edgeStyle=orthogonalEdgeStyle;rounded=0;orthogonalLoop=1;jettySize=auto;html=1;exitX=0.5;exitY=1;exitDx=0;exitDy=0;entryX=0.5;entryY=0;entryDx=0;entryDy=0;fontSize=8;" edge="1" parent="NFReUXaRawRJMiUW7v5Y-31" source="NFReUXaRawRJMiUW7v5Y-35" target="NFReUXaRawRJMiUW7v5Y-33">
          <mxGeometry relative="1" as="geometry" />
        </mxCell>
        <mxCell id="NFReUXaRawRJMiUW7v5Y-35" value="身份验证" style="rounded=0;whiteSpace=wrap;html=1;" vertex="1" parent="NFReUXaRawRJMiUW7v5Y-31">
          <mxGeometry x="30" y="90" width="70" height="30" as="geometry" />
        </mxCell>
        <mxCell id="NFReUXaRawRJMiUW7v5Y-36" style="edgeStyle=orthogonalEdgeStyle;rounded=0;orthogonalLoop=1;jettySize=auto;html=1;exitX=0.5;exitY=1;exitDx=0;exitDy=0;entryX=0.5;entryY=0;entryDx=0;entryDy=0;fontSize=8;" edge="1" parent="NFReUXaRawRJMiUW7v5Y-31" source="NFReUXaRawRJMiUW7v5Y-37" target="NFReUXaRawRJMiUW7v5Y-35">
          <mxGeometry relative="1" as="geometry" />
        </mxCell>
        <mxCell id="NFReUXaRawRJMiUW7v5Y-37" value="用户&lt;br&gt;发起贷款" style="rounded=0;whiteSpace=wrap;html=1;" vertex="1" parent="NFReUXaRawRJMiUW7v5Y-31">
          <mxGeometry x="30" y="40" width="70" height="30" as="geometry" />
        </mxCell>
        <mxCell id="NFReUXaRawRJMiUW7v5Y-38" value="发起贷款" style="rounded=0;whiteSpace=wrap;html=1;" vertex="1" parent="NFReUXaRawRJMiUW7v5Y-31">
          <mxGeometry x="30" y="190" width="70" height="30" as="geometry" />
        </mxCell>
        <mxCell id="NFReUXaRawRJMiUW7v5Y-39" value="风控" style="swimlane;html=1;startSize=20;" vertex="1" parent="NFReUXaRawRJMiUW7v5Y-30">
          <mxGeometry x="150" width="120" height="350" as="geometry" />
        </mxCell>
        <mxCell id="NFReUXaRawRJMiUW7v5Y-40" value="贷中&lt;br&gt;风险验证" style="rounded=0;whiteSpace=wrap;html=1;" vertex="1" parent="NFReUXaRawRJMiUW7v5Y-39">
          <mxGeometry x="30" y="140" width="70" height="30" as="geometry" />
        </mxCell>
        <mxCell id="NFReUXaRawRJMiUW7v5Y-41" value="合同系统" style="swimlane;html=1;startSize=20;" vertex="1" parent="NFReUXaRawRJMiUW7v5Y-30">
          <mxGeometry x="270" width="120" height="350" as="geometry" />
        </mxCell>
        <mxCell id="NFReUXaRawRJMiUW7v5Y-42" value="创建完成" style="rounded=0;whiteSpace=wrap;html=1;" vertex="1" parent="NFReUXaRawRJMiUW7v5Y-41">
          <mxGeometry x="34" y="300" width="66" height="30" as="geometry" />
        </mxCell>
        <mxCell id="NFReUXaRawRJMiUW7v5Y-43" value="向资方发起" style="rounded=0;whiteSpace=wrap;html=1;" vertex="1" parent="NFReUXaRawRJMiUW7v5Y-41">
          <mxGeometry x="34" y="250" width="66" height="30" as="geometry" />
        </mxCell>
        <mxCell id="NFReUXaRawRJMiUW7v5Y-44" style="edgeStyle=orthogonalEdgeStyle;rounded=0;orthogonalLoop=1;jettySize=auto;html=1;exitX=0.5;exitY=1;exitDx=0;exitDy=0;entryX=0.447;entryY=-0.062;entryDx=0;entryDy=0;entryPerimeter=0;fontSize=8;" edge="1" parent="NFReUXaRawRJMiUW7v5Y-41" source="NFReUXaRawRJMiUW7v5Y-45" target="NFReUXaRawRJMiUW7v5Y-43">
          <mxGeometry relative="1" as="geometry" />
        </mxCell>
        <mxCell id="NFReUXaRawRJMiUW7v5Y-45" value="创建借据" style="rounded=0;whiteSpace=wrap;html=1;" vertex="1" parent="NFReUXaRawRJMiUW7v5Y-41">
          <mxGeometry x="34" y="190" width="70" height="30" as="geometry" />
        </mxCell>
        <mxCell id="NFReUXaRawRJMiUW7v5Y-46" value="账务系统" style="swimlane;html=1;startSize=20;" vertex="1" parent="NFReUXaRawRJMiUW7v5Y-30">
          <mxGeometry x="390" width="120" height="350" as="geometry" />
        </mxCell>
        <mxCell id="NFReUXaRawRJMiUW7v5Y-47" value="冻结额度" style="rounded=0;whiteSpace=wrap;html=1;" vertex="1" parent="NFReUXaRawRJMiUW7v5Y-46">
          <mxGeometry x="25" y="190" width="70" height="30" as="geometry" />
        </mxCell>
        <mxCell id="NFReUXaRawRJMiUW7v5Y-48" value="资金方" style="swimlane;html=1;startSize=20;" vertex="1" parent="NFReUXaRawRJMiUW7v5Y-30">
          <mxGeometry x="510" width="120" height="350" as="geometry" />
        </mxCell>
        <mxCell id="NFReUXaRawRJMiUW7v5Y-49" value="授信" style="rounded=0;whiteSpace=wrap;html=1;" vertex="1" parent="NFReUXaRawRJMiUW7v5Y-48">
          <mxGeometry x="30" y="250" width="70" height="30" as="geometry" />
        </mxCell>
        <mxCell id="NFReUXaRawRJMiUW7v5Y-50" style="edgeStyle=orthogonalEdgeStyle;rounded=0;orthogonalLoop=1;jettySize=auto;html=1;exitX=1;exitY=0.5;exitDx=0;exitDy=0;entryX=0;entryY=0.5;entryDx=0;entryDy=0;" edge="1" parent="NFReUXaRawRJMiUW7v5Y-30" source="NFReUXaRawRJMiUW7v5Y-33" target="NFReUXaRawRJMiUW7v5Y-40">
          <mxGeometry relative="1" as="geometry" />
        </mxCell>
        <mxCell id="NFReUXaRawRJMiUW7v5Y-51" value="风险评估" style="text;html=1;align=center;verticalAlign=middle;resizable=0;points=[];labelBackgroundColor=#ffffff;fontSize=8;" vertex="1" connectable="0" parent="NFReUXaRawRJMiUW7v5Y-50">
          <mxGeometry x="-0.2632" relative="1" as="geometry">
            <mxPoint x="7.71" y="-15" as="offset" />
          </mxGeometry>
        </mxCell>
        <mxCell id="NFReUXaRawRJMiUW7v5Y-52" style="edgeStyle=orthogonalEdgeStyle;rounded=0;orthogonalLoop=1;jettySize=auto;html=1;exitX=1;exitY=0.5;exitDx=0;exitDy=0;entryX=0;entryY=0.5;entryDx=0;entryDy=0;fontSize=8;" edge="1" parent="NFReUXaRawRJMiUW7v5Y-30" source="NFReUXaRawRJMiUW7v5Y-38" target="NFReUXaRawRJMiUW7v5Y-45">
          <mxGeometry relative="1" as="geometry" />
        </mxCell>
        <mxCell id="NFReUXaRawRJMiUW7v5Y-53" value="贷款请求" style="text;html=1;align=center;verticalAlign=middle;resizable=0;points=[];labelBackgroundColor=#ffffff;fontSize=8;" vertex="1" connectable="0" parent="NFReUXaRawRJMiUW7v5Y-52">
          <mxGeometry x="-0.1755" y="1" relative="1" as="geometry">
            <mxPoint as="offset" />
          </mxGeometry>
        </mxCell>
        <mxCell id="NFReUXaRawRJMiUW7v5Y-54" style="edgeStyle=orthogonalEdgeStyle;rounded=0;orthogonalLoop=1;jettySize=auto;html=1;exitX=1;exitY=0.5;exitDx=0;exitDy=0;entryX=0;entryY=0.5;entryDx=0;entryDy=0;fontSize=8;" edge="1" parent="NFReUXaRawRJMiUW7v5Y-30" source="NFReUXaRawRJMiUW7v5Y-45" target="NFReUXaRawRJMiUW7v5Y-47">
          <mxGeometry relative="1" as="geometry" />
        </mxCell>
        <mxCell id="NFReUXaRawRJMiUW7v5Y-55" style="edgeStyle=orthogonalEdgeStyle;rounded=0;orthogonalLoop=1;jettySize=auto;html=1;exitX=1;exitY=0.5;exitDx=0;exitDy=0;entryX=0;entryY=0.5;entryDx=0;entryDy=0;fontSize=8;" edge="1" parent="NFReUXaRawRJMiUW7v5Y-30" source="NFReUXaRawRJMiUW7v5Y-43" target="NFReUXaRawRJMiUW7v5Y-49">
          <mxGeometry relative="1" as="geometry" />
        </mxCell>
        <mxCell id="NFReUXaRawRJMiUW7v5Y-56" value="资金方评估用户&lt;br&gt;创建合同" style="text;html=1;align=center;verticalAlign=middle;resizable=0;points=[];labelBackgroundColor=#ffffff;fontSize=8;" vertex="1" connectable="0" parent="NFReUXaRawRJMiUW7v5Y-55">
          <mxGeometry x="-0.1355" y="-2" relative="1" as="geometry">
            <mxPoint x="6.21" y="13" as="offset" />
          </mxGeometry>
        </mxCell>
        <mxCell id="NFReUXaRawRJMiUW7v5Y-57" style="edgeStyle=orthogonalEdgeStyle;rounded=0;orthogonalLoop=1;jettySize=auto;html=1;exitX=0;exitY=0.25;exitDx=0;exitDy=0;entryX=1;entryY=0.5;entryDx=0;entryDy=0;fontSize=8;" edge="1" parent="NFReUXaRawRJMiUW7v5Y-30" source="NFReUXaRawRJMiUW7v5Y-42" target="NFReUXaRawRJMiUW7v5Y-32">
          <mxGeometry relative="1" as="geometry" />
        </mxCell>
      </root>
    </mxGraphModel>
  </diagram>
</mxfile>
